<?xml version="1.0" encoding="utf-8"?><!-- Uploaded to: SVG Repo, www.svgrepo.com, Generator: SVG Repo Mixer Tools -->
<svg width="800px" height="800px" viewBox="0 0 24 24" fill="none" xmlns="http://www.w3.org/2000/svg">
<path d="M12 3C10.3431 3 9 4.34315 9 6V10.5C9 12.1569 10.3431 13.5 12 13.5C13.6569 13.5 15 12.1569 15 10.5V6C15 4.34315 13.6569 3 12 3Z" fill="#3AEE80"/>
<path d="M7.5 10.5C7.5 10.0858 7.16421 9.75 6.75 9.75C6.33579 9.75 6 10.0858 6 10.5C6 13.5999 8.25973 16.0947 11.25 16.4552V19.5H9.75C9.33579 19.5 9 19.8358 9 20.25C9 20.6642 9.33579 21 9.75 21H14.25C14.6642 21 15 20.6642 15 20.25C15 19.8358 14.6642 19.5 14.25 19.5H12.75V16.4552C15.7403 16.0947 18 13.5999 18 10.5C18 10.0858 17.6642 9.75 17.25 9.75C16.8358 9.75 16.5 10.0858 16.5 10.5C16.5 13.0258 14.5258 15 12 15C9.47421 15 7.5 13.0258 7.5 10.5Z" fill="#3A52EE"/>
</svg>