<?xml version="1.0" encoding="utf-8"?><!-- Uploaded to: SVG Repo, www.svgrepo.com, Generator: SVG Repo Mixer Tools -->
<svg width="800px" height="800px" viewBox="0 0 24 24" fill="none" xmlns="http://www.w3.org/2000/svg">
<path d="M12 3C10.3431 3 9 4.34315 9 6V10.95C9 11.7664 9.38339 12.4928 9.97998 12.9594L9.03025 13.9091C8.08991 13.093 7.5 11.8821 7.5 10.5C7.5 10.0858 7.16421 9.75 6.75 9.75C6.33579 9.75 6 10.0858 6 10.5C6 12.286 6.7514 13.8772 7.96763 14.9717L4.71967 18.2197C4.42678 18.5126 4.42678 18.9874 4.71967 19.2803C5.01256 19.5732 5.48744 19.5732 5.78033 19.2803L19.2803 5.78033C19.5732 5.48744 19.5732 5.01256 19.2803 4.71967C18.9874 4.42678 18.5126 4.42678 18.2197 4.71967L15 7.93934V6C15 4.34315 13.6569 3 12 3Z" fill="#E8BFB4"/>
<path d="M18 10.5C18 10.0858 17.6642 9.75 17.25 9.75C16.8358 9.75 16.5 10.0858 16.5 10.5C16.5 13.0258 14.5258 15 12 15C11.5858 15 11.25 15.3358 11.25 15.75V19.5H9.75C9.33579 19.5 9 19.8358 9 20.25C9 20.6642 9.33579 21 9.75 21H14.25C14.6642 21 15 20.6642 15 20.25C15 19.8358 14.6642 19.5 14.25 19.5H12.75V16.4552C15.7403 16.0947 18 13.5999 18 10.5Z" fill="#FF3600"/>
</svg>